<?xml version="1.0" encoding="UTF-8"?>
<svg width="16px" height="13px" viewBox="0 0 16 13" version="1.1" xmlns="http://www.w3.org/2000/svg" xmlns:xlink="http://www.w3.org/1999/xlink">
    <!-- Generator: Sketch 41.2 (35397) - http://www.bohemiancoding.com/sketch -->
    <title>Shape</title>
    <desc>Created with Sketch.</desc>
    <defs></defs>
    <g id="Page-1" stroke="none" stroke-width="1" fill="none" fill-rule="evenodd">
        <g id="1" fill="#FFFFFF">
            <path d="M15.735,2.106 L0.943,11.993 C0.847,12.057 0.732,12.094 0.608,12.094 C0.278,12.094 0.01,11.83 0.01,11.504 C0.01,11.299 0.115,11.119 0.275,11.013 L15.067,1.127 C15.163,1.063 15.278,1.025 15.402,1.025 C15.733,1.025 16,1.29 16,1.616 C16,1.819 15.895,2 15.735,2.106 Z M1.844,4.728 C1.844,4.076 2.378,3.548 3.037,3.547 L3.037,3.544 L7.003,3.544 L11.055,0.268 L11.058,0.272 C11.264,0.105 11.525,0.001 11.812,0.001 C12.436,0.001 12.941,0.474 12.997,1.075 L1.843,8.521 L1.843,4.728 L1.844,4.728 Z M13.009,7.485 L13.009,8.668 L13.009,9.85 L13.009,11.819 C13.009,12.472 12.474,13.001 11.813,13.001 C11.55,13.001 11.309,12.915 11.112,12.772 L11.11,12.775 L7.038,9.85 L6.264,9.85 L13.01,5.347 L13.01,7.485 L13.009,7.485 Z" id="Shape"></path>
        </g>
    </g>
</svg>