<?xml version="1.0" encoding="UTF-8"?>
<svg width="16px" height="14px" viewBox="0 0 16 14" version="1.1" xmlns="http://www.w3.org/2000/svg" xmlns:xlink="http://www.w3.org/1999/xlink">
    <!-- Generator: Sketch 41.2 (35397) - http://www.bohemiancoding.com/sketch -->
    <title>Shape</title>
    <desc>Created with Sketch.</desc>
    <defs></defs>
    <g id="Page-1" stroke="none" stroke-width="1" fill="none" fill-rule="evenodd">
        <g id="2" transform="translate(-1.000000, 0.000000)" fill="#FFFFFF">
            <path d="M14.926,12.969 L13.852,11.864 C14.781,10.667 15.34,9.152 15.34,7.501 C15.34,5.849 14.781,4.335 13.852,3.139 L14.926,2.033 C16.126,3.515 16.849,5.421 16.849,7.502 C16.849,9.581 16.126,11.487 14.926,12.969 Z M10.434,13.718 C10.185,13.718 9.957,13.633 9.77,13.491 L9.768,13.494 L5.914,10.608 L2.131,10.608 C1.506,10.608 0.999,10.086 0.999,9.442 L0.999,5.556 C0.999,4.913 1.504,4.392 2.128,4.39 L2.128,4.387 L5.881,4.387 L9.716,1.157 L9.719,1.16 C9.914,0.995 10.161,0.893 10.432,0.893 C11.057,0.893 11.564,1.414 11.564,2.059 L11.564,5.557 L11.564,8.276 L11.564,9.443 L11.564,10.609 L11.564,12.552 C11.566,13.195 11.059,13.718 10.434,13.718 Z" id="Shape"></path>
        </g>
    </g>
</svg>