<?xml version="1.0" encoding="UTF-8"?>
<svg width="20px" height="17px" viewBox="0 0 20 17" version="1.1" xmlns="http://www.w3.org/2000/svg" xmlns:xlink="http://www.w3.org/1999/xlink">
    <!-- Generator: Sketch 41.2 (35397) - http://www.bohemiancoding.com/sketch -->
    <title>Shape</title>
    <desc>Created with Sketch.</desc>
    <defs></defs>
    <g id="Page-1" stroke="none" stroke-width="1" fill="none" fill-rule="evenodd">
        <g id="3" fill="#FFFFFF">
            <path d="M16.868,17 L15.793,15.893 C17.468,13.914 18.49,11.333 18.49,8.501 C18.49,5.67 17.468,3.088 15.793,1.109 L16.868,0.003 C18.815,2.265 20,5.24 20,8.501 C20,11.762 18.816,14.737 16.868,17 Z M13.926,13.969 L12.852,12.864 C13.781,11.667 14.34,10.152 14.34,8.501 C14.34,6.849 13.781,5.335 12.852,4.139 L13.926,3.033 C15.126,4.515 15.849,6.421 15.849,8.502 C15.849,10.581 15.126,12.487 13.926,13.969 Z M9.434,14.718 C9.185,14.718 8.957,14.633 8.77,14.491 L8.768,14.494 L4.915,11.608 L1.132,11.608 C0.507,11.608 0,11.086 0,10.442 L0,6.556 C0,5.913 0.505,5.392 1.129,5.39 L1.129,5.387 L4.882,5.387 L8.717,2.157 L8.72,2.16 C8.915,1.995 9.162,1.893 9.433,1.893 C10.058,1.893 10.565,2.414 10.565,3.059 L10.565,6.557 L10.565,9.276 L10.565,10.443 L10.565,11.609 L10.565,13.552 C10.566,14.195 10.059,14.718 9.434,14.718 Z" id="Shape"></path>
        </g>
    </g>
</svg>