<?xml version="1.0" encoding="UTF-8"?>
<svg width="19px" height="12px" viewBox="0 0 19 12" version="1.1" xmlns="http://www.w3.org/2000/svg" xmlns:xlink="http://www.w3.org/1999/xlink">
    <!-- Generator: Sketch 41.2 (35397) - http://www.bohemiancoding.com/sketch -->
    <title>Shape</title>
    <desc>Created with Sketch.</desc>
    <defs></defs>
    <g id="Page-1" stroke="none" stroke-width="1" fill="none" fill-rule="evenodd">
        <g id="4" fill="#FFFFFF">
            <path d="M18.679,4.772 L17.262,6.182 L18.679,7.593 L18.679,7.593 C18.877,7.79 19,8.063 19,8.364 C19,8.968 18.509,9.455 17.904,9.455 C17.601,9.455 17.327,9.333 17.129,9.136 L17.129,9.136 L15.712,7.726 L14.295,9.136 L14.295,9.136 C14.097,9.334 13.823,9.455 13.52,9.455 C12.915,9.455 12.424,8.967 12.424,8.364 C12.424,8.063 12.547,7.79 12.745,7.593 L12.745,7.593 L14.162,6.182 L12.745,4.772 L12.745,4.772 C12.547,4.575 12.424,4.302 12.424,4 C12.424,3.398 12.915,2.91 13.52,2.91 C13.823,2.91 14.097,3.032 14.295,3.229 L14.295,3.229 L15.712,4.639 L17.129,3.229 L17.129,3.229 C17.327,3.031 17.601,2.91 17.904,2.91 C18.509,2.91 19,3.398 19,4 C19,4.302 18.877,4.575 18.679,4.772 L18.679,4.772 Z M9.135,12 C8.894,12 8.673,11.92 8.492,11.789 L8.49,11.791 L4.759,9.091 L1.096,9.091 C0.491,9.091 -2.84217094e-14,8.602 -2.84217094e-14,8 L-2.84217094e-14,4.363 C-2.84217094e-14,3.762 0.49,3.275 1.093,3.274 L1.093,3.271 L4.727,3.271 L8.44,0.248 L8.443,0.252 C8.632,0.097 8.87,0.001 9.134,0.001 C9.739,0.001 10.23,0.489 10.23,1.091 L10.23,4.364 L10.23,6.91 L10.23,8 L10.23,9.091 L10.23,10.909 C10.231,11.512 9.74,12 9.135,12 Z" id="Shape"></path>
        </g>
    </g>
</svg>