<?xml version="1.0" encoding="UTF-8"?>
<svg width="23px" height="17px" viewBox="0 0 23 17" version="1.1" xmlns="http://www.w3.org/2000/svg" xmlns:xlink="http://www.w3.org/1999/xlink">
    <!-- Generator: Sketch 41.2 (35397) - http://www.bohemiancoding.com/sketch -->
    <title>full</title>
    <desc>Created with Sketch.</desc>
    <defs></defs>
    <g id="Page-1" stroke="none" stroke-width="1" fill="none" fill-rule="evenodd">
        <g id="full" fill="#FFFFFF">
            <g id="Layer_1">
                <path d="M22.17,17 L18.853,17 L18.853,17 C18.395,17 18.023,16.644 18.023,16.204 C18.023,15.764 18.395,15.406 18.853,15.406 L18.853,15.406 L21.341,15.406 L21.341,13.016 L21.341,13.016 C21.341,12.576 21.712,12.219 22.17,12.219 C22.628,12.219 23,12.575 23,13.016 L23,13.016 L23,16.204 C23,16.644 22.628,17 22.17,17 Z M22.17,4.782 C21.712,4.782 21.341,4.425 21.341,3.985 L21.341,3.985 L21.341,1.595 L18.853,1.595 L18.853,1.595 C18.395,1.595 18.023,1.238 18.023,0.797 C18.023,0.357 18.395,0 18.853,0 L18.853,0 L22.17,0 C22.628,0 23,0.357 23,0.797 L23,3.985 L23,3.985 C23,4.425 22.628,4.782 22.17,4.782 Z M4.146,1.595 L4.146,1.595 L1.658,1.595 L1.658,3.985 L1.658,3.985 C1.658,4.425 1.286,4.782 0.828,4.782 C0.37,4.782 0,4.425 0,3.985 L0,3.985 L0,0.797 C0,0.357 0.371,0 0.829,0 L4.146,0 L4.146,0 C4.604,0 4.976,0.357 4.976,0.797 C4.976,1.238 4.605,1.595 4.146,1.595 Z M3.373,3.241 L19.628,3.241 L19.628,13.76 L3.373,13.76 L3.373,3.241 Z M5.031,12.166 L17.969,12.166 L17.969,4.834 L5.031,4.834 L5.031,12.166 Z M0.829,12.219 C1.287,12.219 1.659,12.575 1.659,13.016 L1.659,13.016 L1.659,15.406 L4.147,15.406 L4.147,15.406 C4.605,15.406 4.977,15.763 4.977,16.204 C4.977,16.644 4.606,17 4.147,17 L4.147,17 L0.83,17 C0.372,17 0.001,16.644 0.001,16.204 L0.001,13.016 L0.001,13.016 C4.47706108e-14,12.575 0.371,12.219 0.829,12.219 Z" id="full"></path>
            </g>
        </g>
    </g>
</svg>