<?xml version="1.0" encoding="UTF-8"?>
<svg width="23px" height="17px" viewBox="0 0 23 17" version="1.1" xmlns="http://www.w3.org/2000/svg" xmlns:xlink="http://www.w3.org/1999/xlink">
    <!-- Generator: Sketch 41.2 (35397) - http://www.bohemiancoding.com/sketch -->
    <title>Shape</title>
    <desc>Created with Sketch.</desc>
    <defs></defs>
    <g id="Page-1" stroke="none" stroke-width="1" fill="none" fill-rule="evenodd">
        <g id="hide" fill="#FFFFFF">
            <g id="Layer_1">
                <path d="M16.834,10 L19.172,10 L19.172,10 C19.632,10 20.006,10.373 20.006,10.833 C20.006,11.294 19.632,11.667 19.172,11.667 L19.172,11.667 L17.668,11.667 L17.668,13.166 C17.668,13.166 17.668,13.166 17.668,13.167 C17.668,13.627 17.294,14 16.834,14 C16.374,14 16,13.627 16,13.167 L16,13.167 L16,10.833 C16,10.373 16.374,10 16.834,10 Z M16.834,3 C17.295,3 17.668,3.373 17.668,3.834 L17.668,3.834 L17.668,5.334 L19.172,5.334 L19.172,5.334 C19.632,5.334 20.006,5.707 20.006,6.167 C20.006,6.628 19.632,7 19.172,7 L19.172,7 L16.834,7 C16.373,7 16,6.627 16,6.167 L16,3.834 L16,3.834 C16,3.373 16.374,3 16.834,3 Z M3.827,5.334 L3.827,5.334 L5.331,5.334 L5.331,3.834 L5.331,3.834 C5.331,3.373 5.704,3 6.165,3 C6.626,3 6.999,3.373 6.999,3.834 L6.999,3.834 L6.999,6.167 C6.999,6.628 6.625,7 6.165,7 L3.827,7 L3.827,7 C3.366,7 2.993,6.627 2.993,6.167 C2.993,5.707 3.366,5.334 3.827,5.334 Z M0.373,0.24 L22.628,0.24 L22.628,16.759 L0.373,16.759 L0.373,0.24 Z M2.031,15.166 L20.969,15.166 L20.969,1.834 L2.031,1.834 L2.031,15.166 Z M6.166,14 C5.705,14 5.332,13.627 5.332,13.167 L5.332,13.167 L5.332,11.667 L3.828,11.667 L3.828,11.667 C3.367,11.667 2.994,11.293 2.994,10.833 C2.994,10.373 3.368,10 3.828,10 L3.828,10 L6.166,10 C6.627,10 7,10.373 7,10.833 L7,13.166 L7,13.167 C7,13.627 6.626,14 6.166,14 Z" id="Shape"></path>
            </g>
        </g>
    </g>
</svg>