<?xml version="1.0" encoding="UTF-8"?>
<svg width="15px" height="17px" viewBox="0 0 15 17" version="1.1" xmlns="http://www.w3.org/2000/svg" xmlns:xlink="http://www.w3.org/1999/xlink">
    <!-- Generator: Sketch 41.2 (35397) - http://www.bohemiancoding.com/sketch -->
    <title>play</title>
    <desc>Created with Sketch.</desc>
    <defs></defs>
    <g id="Page-1" stroke="none" stroke-width="1" fill="none" fill-rule="evenodd">
        <g id="play" fill="#FFFFFF">
            <g id="Layer_1">
                <path d="M15,8.5 C15,9.084 14.683,9.595 14.21,9.872 L14.21,9.872 L2.443,16.768 C2.439,16.77 2.434,16.772 2.43,16.775 L2.424,16.779 L2.424,16.779 C2.185,16.918 1.906,17 1.607,17 C0.719,17 0,16.287 0,15.407 L0,15.407 L0,1.595 L0,1.595 C0,0.714 0.719,0 1.607,0 C1.906,0 2.185,0.081 2.425,0.222 L2.425,0.222 L2.431,0.226 C2.435,0.228 2.44,0.231 2.444,0.233 L14.211,7.129 L14.211,7.129 C14.683,7.406 15,7.916 15,8.5 Z" id="play"></path>
            </g>
        </g>
    </g>
</svg>